<svg viewBox="0 0 100 100" xmlns="http://www.w3.org/2000/svg">
  <!-- Damascene ornamental corner decoration -->
  <defs>
    <linearGradient id="goldGradient" x1="0%" y1="0%" x2="100%" y2="100%">
      <stop offset="0%" style="stop-color:rgb(184,154,90);stop-opacity:1" />
      <stop offset="50%" style="stop-color:rgb(212,175,55);stop-opacity:1" />
      <stop offset="100%" style="stop-color:rgb(184,154,90);stop-opacity:1" />
    </linearGradient>
  </defs>
  
  <!-- Main corner shape -->
  <path
    d="M 0 0 L 100 0 L 100 20 Q 80 20 60 40 Q 40 60 20 80 Q 20 100 0 100 Z"
    fill="url(#goldGradient)"
    opacity="0.6"
  />
  
  <!-- Inner decorative lines -->
  <path
    d="M 10 10 L 90 10 Q 80 15 70 25 Q 60 35 50 45 Q 40 55 30 65 Q 25 70 20 80 Q 15 90 10 90 Z"
    fill="none"
    stroke="rgb(232,224,207)"
    stroke-width="0.5"
    opacity="0.3"
  />
  
  <!-- Ornamental dots -->
  <circle cx="85" cy="15" r="2" fill="rgb(232,224,207)" opacity="0.5" />
  <circle cx="75" cy="25" r="1.5" fill="rgb(232,224,207)" opacity="0.5" />
  <circle cx="65" cy="35" r="1.5" fill="rgb(232,224,207)" opacity="0.5" />
  <circle cx="15" cy="85" r="2" fill="rgb(232,224,207)" opacity="0.5" />
  <circle cx="25" cy="75" r="1.5" fill="rgb(232,224,207)" opacity="0.5" />
  <circle cx="35" cy="65" r="1.5" fill="rgb(232,224,207)" opacity="0.5" />
</svg>
