<svg width="320" height="180" viewBox="0 0 320 180" fill="none" xmlns="http://www.w3.org/2000/svg">
  <defs>
    <linearGradient id="auroraGradient" x1="0" y1="0" x2="1" y2="1">
      <stop offset="0%" stop-color="#9D4EDD" />
      <stop offset="45%" stop-color="#F15BB5" />
      <stop offset="100%" stop-color="#00BBF9" />
    </linearGradient>
    <linearGradient id="glowGradient" x1="0" y1="0" x2="0" y2="1">
      <stop offset="0%" stop-color="rgba(255, 255, 255, 0.9)" />
      <stop offset="100%" stop-color="rgba(255, 255, 255, 0)" />
    </linearGradient>
    <filter id="softGlow" x="-20%" y="-20%" width="140%" height="140%">
      <feGaussianBlur stdDeviation="15" result="blur" />
      <feBlend in="SourceGraphic" in2="blur" mode="screen" />
    </filter>
  </defs>
  <rect width="320" height="180" rx="24" fill="#F4ECFF" />
  <rect x="20" y="20" width="280" height="140" rx="20" fill="white" stroke="#DCC8FF" stroke-width="2" />
  <path
    d="M20 118C60 98 96 134 132 122C168 110 178 72 220 78C262 84 280 46 300 58"
    stroke="url(#auroraGradient)"
    stroke-width="12"
    stroke-linecap="round"
    filter="url(#softGlow)"
  />
  <path
    d="M32 124C72 104 112 148 152 130C192 112 212 68 256 78C284 84 296 70 308 74"
    stroke="url(#glowGradient)"
    stroke-width="18"
    stroke-linecap="round"
  />
  <circle cx="88" cy="68" r="14" fill="#FEE440" opacity="0.8" />
  <circle cx="244" cy="54" r="10" fill="#00F5D4" opacity="0.6" />
  <text x="40" y="156" fill="#4A266A" font-family="'Poppins', 'Cairo', sans-serif" font-size="20" font-weight="600">
    Aurora Boutique
  </text>
</svg>
