<svg width="640" height="360" viewBox="0 0 640 360" fill="none" xmlns="http://www.w3.org/2000/svg">
  <defs>
    <linearGradient id="sandGradient" x1="0" y1="0" x2="0" y2="1">
      <stop offset="0%" stop-color="#FFF9F0" />
      <stop offset="70%" stop-color="#F9E7C9" />
    </linearGradient>
    <linearGradient id="seaGradient" x1="0" y1="0" x2="1" y2="0">
      <stop offset="0%" stop-color="#0F766E" stop-opacity="0.9" />
      <stop offset="100%" stop-color="#12A39A" stop-opacity="0.7" />
    </linearGradient>
    <linearGradient id="accentSun" x1="0" y1="0" x2="1" y2="1">
      <stop offset="0%" stop-color="#F26D4A" stop-opacity="0.95" />
      <stop offset="100%" stop-color="#FEB47B" stop-opacity="0.9" />
    </linearGradient>
  </defs>
  <rect width="640" height="360" fill="url(#sandGradient)" />
  <path d="M0 220C80 180 160 210 240 200C320 190 400 140 480 150C560 160 640 120 640 120V360H0V220Z" fill="url(#seaGradient)" opacity="0.9" />
  <path d="M0 260C90 240 180 270 270 250C360 230 450 260 540 240C600 228 640 236 640 236V360H0V260Z" fill="#EADCC4" opacity="0.75" />
  <circle cx="520" cy="80" r="46" fill="url(#accentSun)" />
  <g opacity="0.9">
    <path d="M120 70C150 50 180 50 210 70" stroke="#0F766E" stroke-width="6" stroke-linecap="round" />
    <path d="M120 90C150 70 180 70 210 90" stroke="#0F766E" stroke-width="4" stroke-linecap="round" opacity="0.6" />
  </g>
  <rect x="72" y="140" width="220" height="130" rx="24" fill="#FFFFFF" stroke="#0F766E1A" stroke-width="2" />
  <rect x="96" y="162" width="120" height="16" rx="8" fill="#0F766E" opacity="0.2" />
  <rect x="96" y="190" width="168" height="10" rx="5" fill="#1E3A4C" opacity="0.6" />
  <rect x="96" y="210" width="168" height="10" rx="5" fill="#1E3A4C" opacity="0.4" />
  <rect x="96" y="232" width="84" height="18" rx="9" fill="#F26D4A" opacity="0.9" />
  <rect x="140" y="232" width="84" height="18" rx="9" fill="#0F766E" opacity="0.9" />
</svg>
